<?xml version="1.0" encoding="UTF-8" standalone="no"?><!DOCTYPE svg PUBLIC "-//W3C//DTD SVG 1.1//EN" "http://www.w3.org/Graphics/SVG/1.1/DTD/svg11.dtd"><svg width="100%" height="100%" viewBox="0 0 778 399" version="1.1" xmlns="http://www.w3.org/2000/svg" xmlns:xlink="http://www.w3.org/1999/xlink" xml:space="preserve" xmlns:serif="http://www.serif.com/" style="fill-rule:evenodd;clip-rule:evenodd;stroke-linejoin:round;stroke-miterlimit:2;"><rect id="Artboard1" x="0" y="0" width="777.083" height="398.958" style="fill:none;"/><clipPath id="_clip1"><rect x="0" y="0" width="777.083" height="398.958"/></clipPath><g clip-path="url(#_clip1)"><rect x="-0" y="0" width="777.083" height="398.958" style="fill:#ff0808;"/><path d="M53.226,52.821l49.714,-0.169l0.622,183.532l89.988,-193.204l47.389,10.325l1.263,184.809l93.457,-195.366l44.847,21.453l-140,292.661l-47.28,-10.557l-1.245,-182.211l-90.365,194.015l-47.39,-10.411l-1,-294.878Z" style="fill:#fff;"/><path d="M729.336,347.531l-49.714,0.169l-0.622,-183.532l-89.988,193.204l-47.389,-10.325l-1.263,-184.809l-93.457,195.366l-44.847,-21.453l140,-292.661l47.28,10.557l1.245,182.211l90.365,-194.015l47.39,10.411l1,294.878Z" style="fill:#fff;"/><path d="M340.598,356.671l-45.03,-21.068l139,-297.096l45.03,21.068l-139,297.096Z" style="fill:#fff;"/></g></svg>