<svg xmlns="http://www.w3.org/2000/svg" viewBox="0 0 24 24" fill="none" stroke="currentColor" stroke-width="2" stroke-linecap="round" stroke-linejoin="round">
  <path d="M14 2H6a2 2 0 0 0-2 2v16a2 2 0 0 0 2 2h12a2 2 0 0 0 2-2V8z"></path>
  <polyline points="14 2 14 8 20 8"></polyline>
  <g stroke-width="1.2">
    <!-- P -->
    <path d="M7 13v3" />
    <path d="M7 13h1.2a1.2 1.2 0 0 1 0 2.4h-1.2" />
    
    <!-- D -->
    <path d="M11.5 13v3" />
    <path d="M11.5 13h1.2a1.5 1.5 0 0 1 0 3h-1.2" />
    
    <!-- F -->
    <path d="M16.5 13v3" />
    <path d="M16.5 13h1.8" />
    <path d="M16.5 14.5h1.2" />
  </g>
</svg>
