<svg xmlns="http://www.w3.org/2000/svg" viewBox="0 0 24 24" fill="none" stroke="currentColor" stroke-width="2" stroke-linecap="round" stroke-linejoin="round">
  <path d="M14 2H6a2 2 0 0 0-2 2v16a2 2 0 0 0 2 2h12a2 2 0 0 0 2-2V8z"></path>
  <polyline points="14 2 14 8 20 8"></polyline>
  <path d="M9 13v3" />
  <path d="M9 13h1a1 1 0 0 1 1 1v0a1 1 0 0 1-1 1h-1" />
  <path d="M13 13v3" />
  <path d="M13 13h1.5a1.5 1.5 0 0 1 0 3H13" />
  <path d="M17 13h1.5" />
  <path d="M17 13v3" />
  <path d="M17 14.5h1" />
</svg>
